HIERARCHY
ROOT hip
{
  OFFSET 0 0 0
  CHANNELS 6 Xposition Yposition Zposition Zrotation Yrotation Xrotation
  JOINT abdomen
  {
    OFFSET 0 20.6881 -0.73152
    CHANNELS 3 Zrotation Xrotation Yrotation
    JOINT chest
    {
      OFFSET 0 11.7043 -0.48768
      CHANNELS 3 Zrotation Xrotation Yrotation
      JOINT neck
      {
        OFFSET 0 22.1894 -2.19456
        CHANNELS 3 Zrotation Xrotation Yrotation
        JOINT head
        {
          OFFSET -0.24384 7.07133 1.2192
          CHANNELS 3 Zrotation Xrotation Yrotation
          JOINT leftEye
          {
            OFFSET 4.14528 8.04674 8.04672
            CHANNELS 3 Zrotation Xrotation Yrotation
            End Site
            {
              OFFSET 1 0 0
            }
          }
          JOINT rightEye
          {
            OFFSET -3.6576 8.04674 8.04672
            CHANNELS 3 Zrotation Xrotation Yrotation
            End Site
            {
              OFFSET 1 0 0
            }
          }
        }
      }
      JOINT rCollar
      {
        OFFSET -2.68224 19.2634 -4.8768
        CHANNELS 3 Zrotation Xrotation Yrotation
        JOINT rShldr
        {
          OFFSET -8.77824 -1.95073 1.46304
          CHANNELS 3 Zrotation Xrotation Yrotation
          JOINT rForeArm
          {
            OFFSET -28.1742 -1.7115 0.48768
            CHANNELS 3 Zrotation Xrotation Yrotation
            JOINT rHand
            {
              OFFSET -22.5879 0.773209 7.07136
              CHANNELS 3 Zrotation Xrotation Yrotation
              JOINT rThumb1
              {
                OFFSET -1.2192 -0.487915 3.41376
                CHANNELS 3 Zrotation Xrotation Yrotation
                JOINT rThumb2
                {
                  OFFSET -3.37035 -0.52449 3.41376
                  CHANNELS 3 Zrotation Xrotation Yrotation
                  End Site
                  {
                    OFFSET -1.78271 -1.18214 1.43049
                  }
                }
              }
              JOINT rIndex1
              {
                OFFSET -7.75947 0.938293 5.60832
                CHANNELS 3 Zrotation Xrotation Yrotation
                JOINT rIndex2
                {
                  OFFSET -2.54057 -0.884171 1.56538
                  CHANNELS 3 Zrotation Xrotation Yrotation
                  End Site
                  {
                    OFFSET -1.62519 -0.234802 1.16502
                  }
                }
              }
              JOINT rMid1
              {
                OFFSET -8.24714 1.18213 3.41376
                CHANNELS 3 Zrotation Xrotation Yrotation
                JOINT rMid2
                {
                  OFFSET -3.10165 -0.590103 1.0647
                  CHANNELS 3 Zrotation Xrotation Yrotation
                  End Site
                  {
                    OFFSET -2.48547 -0.328903 0.83742
                  }
                }
              }
              JOINT rRing1
              {
                OFFSET -8.82822 0.546677 1.51678
                CHANNELS 3 Zrotation Xrotation Yrotation
                JOINT rRing2
                {
                  OFFSET -2.60934 -0.819778 -0.0198488
                  CHANNELS 3 Zrotation Xrotation Yrotation
                  End Site
                  {
                    OFFSET -2.33842 -0.294052 0.168128
                  }
                }
              }
              JOINT rPinky1
              {
                OFFSET -8.27202 -0.0477905 -0.4584
                CHANNELS 3 Zrotation Xrotation Yrotation
                JOINT rPinky2
                {
                  OFFSET -1.82734 -0.647385 -0.700984
                  CHANNELS 3 Zrotation Xrotation Yrotation
                  End Site
                  {
                    OFFSET -1.69225 -0.51767 -0.607171
                  }
                }
              }
            }
          }
        }
      }
      JOINT lCollar
      {
        OFFSET 2.68224 19.2634 -4.8768
        CHANNELS 3 Zrotation Xrotation Yrotation
        JOINT lShldr
        {
          OFFSET 8.77824 -1.95073 1.46304
          CHANNELS 3 Zrotation Xrotation Yrotation
          JOINT lForeArm
          {
            OFFSET 28.1742 -1.7115 0.48768
            CHANNELS 3 Zrotation Xrotation Yrotation
            JOINT lHand
            {
              OFFSET 22.5879 0.773209 7.07136
              CHANNELS 3 Zrotation Xrotation Yrotation
              JOINT lThumb1
              {
                OFFSET 1.2192 -0.487915 3.41376
                CHANNELS 3 Zrotation Xrotation Yrotation
                JOINT lThumb2
                {
                  OFFSET 3.37035 -0.52449 3.41376
                  CHANNELS 3 Zrotation Xrotation Yrotation
                  End Site
                  {
                    OFFSET 1.78271 -1.18214 1.43049
                  }
                }
              }
              JOINT lIndex1
              {
                OFFSET 7.75947 0.938293 5.60832
                CHANNELS 3 Zrotation Xrotation Yrotation
                JOINT lIndex2
                {
                  OFFSET 2.54057 -0.884171 1.56538
                  CHANNELS 3 Zrotation Xrotation Yrotation
                  End Site
                  {
                    OFFSET 1.62519 -0.234802 1.16502
                  }
                }
              }
              JOINT lMid1
              {
                OFFSET 8.24714 1.18213 3.41376
                CHANNELS 3 Zrotation Xrotation Yrotation
                JOINT lMid2
                {
                  OFFSET 3.10165 -0.590103 1.0647
                  CHANNELS 3 Zrotation Xrotation Yrotation
                  End Site
                  {
                    OFFSET 2.48547 -0.328903 0.83742
                  }
                }
              }
              JOINT lRing1
              {
                OFFSET 8.82822 0.546677 1.51678
                CHANNELS 3 Zrotation Xrotation Yrotation
                JOINT lRing2
                {
                  OFFSET 2.60934 -0.819778 -0.0198488
                  CHANNELS 3 Zrotation Xrotation Yrotation
                  End Site
                  {
                    OFFSET 2.33842 -0.294052 0.168128
                  }
                }
              }
              JOINT lPinky1
              {
                OFFSET 8.27202 -0.0477905 -0.4584
                CHANNELS 3 Zrotation Xrotation Yrotation
                JOINT lPinky2
                {
                  OFFSET 1.82734 -0.647385 -0.700984
                  CHANNELS 3 Zrotation Xrotation Yrotation
                  End Site
                  {
                    OFFSET 1.69225 -0.51767 -0.607171
                  }
                }
              }
            }
          }
        }
      }
    }
  }
  JOINT rButtock
  {
    OFFSET -8.77824 4.35084 1.2192
    CHANNELS 3 Zrotation Xrotation Yrotation
    JOINT rThigh
    {
      OFFSET 0 -1.70687 -2.19456
      CHANNELS 3 Zrotation Xrotation Yrotation
      JOINT rShin
      {
        OFFSET 0 -36.8199 0.73152
        CHANNELS 3 Zrotation Xrotation Yrotation
        JOINT rFoot
        {
          OFFSET 0.73152 -45.1104 -5.12064
          CHANNELS 3 Zrotation Xrotation Yrotation
          End Site
          {
            OFFSET -1.1221 -3.69964 12.103
          }
        }
      }
    }
  }
  JOINT lButtock
  {
    OFFSET 8.77824 4.35084 1.2192
    CHANNELS 3 Zrotation Xrotation Yrotation
    JOINT lThigh
    {
      OFFSET 0 -1.70687 -2.19456
      CHANNELS 3 Zrotation Xrotation Yrotation
      JOINT lShin
      {
        OFFSET 0 -36.8199 0.73152
        CHANNELS 3 Zrotation Xrotation Yrotation
        JOINT lFoot
        {
          OFFSET -0.73152 -45.1104 -5.12064
          CHANNELS 3 Zrotation Xrotation Yrotation
          End Site
          {
            OFFSET 1.1221 -3.69964 12.103
          }
        }
      }
    }
  }
}
MOTION
Frames:	4
Frame Time:	0.00833333
38.2607 83.04 3.31582 183.265 12.5488 175.443 -2.95583 -1.6377 3.40561 -1.98584 -5.88909 1.10829 14.7436 4.9812 9.44563 -31.2269 -10.4466 15.9409 -0.0 0.0 0.0 -0.0 0.0 0.0 6.6773e-14 -2.21526e-13 3.58419e-13 -17.7852 -41.3482 -17.5566 -12.2194 -5.60305 22.0363 0.00183403 0.419813 0.0589577 2.34954e-09 6.79184e-10 7.21221e-10 4.06097e-09 1.17719e-09 1.23934e-09 2.34955e-09 6.79182e-10 7.21209e-10 7.73091 5.47488 0.417314 2.34954e-09 6.79182e-10 7.2122e-10 2.90554 0.965183 0.102902 2.34955e-09 6.79177e-10 7.21212e-10 10.2786 0.731801 0.0259123 2.34954e-09 6.79179e-10 7.21216e-10 2.22167 -0.733487 -0.20892 6.6744e-14 -2.21515e-13 3.58163e-13 23.9759 -29.3058 21.8167 11.0379 -4.79644 -19.7629 0.346443 16.4899 -2.38461 1.93093e-09 -1.00464e-09 3.22186e-09 3.37774e-09 -1.74611e-09 5.54043e-09 1.93093e-09 -1.00464e-09 3.22187e-09 -7.73091 5.47488 -0.417314 1.93093e-09 -1.00465e-09 3.22185e-09 -2.90554 0.965183 -0.102902 1.93093e-09 -1.00464e-09 3.22186e-09 -10.2786 0.731801 -0.0259123 1.93093e-09 -1.00464e-09 3.22185e-09 -2.22167 -0.733487 0.20892 -2.03217e-16 0.0 -3.88251e-19 7.95627 0.673301 21.1598 -0.0667916 26.3696 0.700334 -14.8562 -24.2255 -28.8249 2.03217e-16 0.0 3.88251e-19 -0.457198 6.07618 -20.019 0.0132561 23.4224 -1.1975 27.2077 -33.3534 39.3227
37.9856 83.0376 3.368 182.421 12.6576 175.687 -1.88232 -1.47795 3.45707 -2.12262 -5.88969 1.10702 14.6476 4.92265 9.5238 -30.9616 -9.91107 16.2989 -0.0 0.0 0.0 -0.0 0.0 0.0 -8.03353e-15 -1.33194e-13 2.27931e-13 -17.9829 -42.8813 -18.1162 -12.2118 -5.59766 22.0218 0.000736378 1.74373 0.245002 1.0306e-09 1.05372e-10 6.61246e-10 1.78147e-09 1.8288e-10 1.14089e-09 1.0306e-09 1.05372e-10 6.61235e-10 7.73091 5.47488 0.417314 1.0306e-09 1.05372e-10 6.61245e-10 2.90554 0.965183 0.102902 1.03061e-09 1.05365e-10 6.61237e-10 10.2786 0.731801 0.0259123 1.03059e-09 1.05366e-10 6.6124e-10 2.22167 -0.733487 -0.20892 -8.06244e-15 -1.33178e-13 2.27677e-13 23.898 -29.4594 22.18 11.0345 -4.79417 -19.7564 0.343162 16.3856 -2.36897 7.97075e-10 -3.7483e-10 1.92513e-09 1.40219e-09 -6.53365e-10 3.31517e-09 7.97061e-10 -3.74831e-10 1.92514e-09 -7.73091 5.47488 -0.417314 7.97071e-10 -3.74833e-10 1.92512e-09 -2.90554 0.965183 -0.102902 7.97071e-10 -3.7483e-10 1.92513e-09 -10.2786 0.731801 -0.0259123 7.97076e-10 -3.74828e-10 1.92512e-09 -2.22167 -0.733487 0.20892 -2.03217e-16 0.0 -3.88251e-19 8.90031 1.06082 21.2865 -0.060915 26.0302 0.677989 -14.7737 -24.2026 -28.7742 2.03217e-16 0.0 3.88251e-19 0.49261 6.1651 -19.796 0.0165859 23.8434 -1.21469 27.2519 -33.7019 39.1322
38.6334 83.0382 3.38617 184.711 13.2495 175.686 -0.77253 -1.31933 3.52765 -2.27931 -5.88417 1.11001 14.5395 4.88012 9.57477 -30.6691 -9.36738 16.6096 -0.0 0.0 0.0 -0.0 0.0 0.0 -8.08472e-14 -2.5579e-14 7.37887e-14 -18.2024 -44.4308 -18.6971 -12.1966 -5.58711 21.9917 -0.00921523 3.09632 0.435487 -3.99503e-10 -4.68675e-10 5.06831e-10 -6.90265e-10 -8.12058e-10 8.79639e-10 -3.995e-10 -4.68673e-10 5.06823e-10 7.73091 5.47488 0.417314 -3.99502e-10 -4.68674e-10 5.06831e-10 2.90554 0.965183 0.102902 -3.99491e-10 -4.68681e-10 5.06824e-10 10.2786 0.731801 0.0259123 -3.99508e-10 -4.68683e-10 5.06826e-10 2.22167 -0.733487 -0.20892 -8.08766e-14 -2.55586e-14 7.35379e-14 23.7972 -29.6713 22.5119 11.0366 -4.79552 -19.7603 0.334284 16.177 -2.33713 -4.41629e-10 2.94188e-10 4.11243e-10 -7.57156e-10 5.07714e-10 7.16075e-10 -4.41652e-10 2.94186e-10 4.11262e-10 -7.73091 5.47488 -0.417314 -4.41632e-10 2.94185e-10 4.11239e-10 -2.90554 0.965183 -0.102902 -4.41634e-10 2.94187e-10 4.11244e-10 -10.2786 0.731801 -0.0259123 -4.41628e-10 2.94188e-10 4.11237e-10 -2.22167 -0.733487 0.20892 -2.03217e-16 0.0 -3.88251e-19 9.86523 1.45837 21.4305 -0.0551618 25.6822 0.654966 -14.6885 -24.1169 -28.7693 2.03217e-16 0.0 3.88251e-19 1.46041 6.25662 -19.5597 0.0202487 24.2745 -1.23244 27.2944 -34.0525 38.9409
38.849 83.0348 3.38464 185.441 13.5502 175.636 0.0249743 -1.24279 3.64647 -2.43444 -5.87055 1.1311 14.4807 4.87739 9.59196 -30.4341 -8.83351 16.8461 -0.0 0.0 0.0 -0.0 0.0 0.0 -1.09518e-13 6.35996e-14 -4.43787e-14 -18.3053 -45.2063 -19.2658 -12.214 -5.59982 22.0247 -0.0171595 3.73712 0.525971 -1.29734e-09 -7.58247e-10 2.6974e-10 -2.24216e-09 -1.3143e-09 4.73349e-10 -1.29734e-09 -7.58243e-10 2.69733e-10 7.73091 5.47488 0.417314 -1.29734e-09 -7.58245e-10 2.6974e-10 2.90554 0.965183 0.102902 -1.29733e-09 -7.58253e-10 2.69734e-10 10.2786 0.731801 0.0259123 -1.29735e-09 -7.58255e-10 2.69736e-10 2.22167 -0.733487 -0.20892 -1.0955e-13 6.36224e-14 -4.46272e-14 23.6737 -29.8783 22.7578 11.0488 -4.80351 -19.7834 0.31118 15.6755 -2.2603 -1.25625e-09 6.99996e-10 -7.0949e-10 -2.17841e-09 1.21249e-09 -1.20971e-09 -1.25628e-09 6.99993e-10 -7.0947e-10 -7.73091 5.47488 -0.417314 -1.25625e-09 6.99992e-10 -7.09493e-10 -2.90554 0.965183 -0.102902 -1.25626e-09 6.99993e-10 -7.09489e-10 -10.2786 0.731801 -0.0259123 -1.25625e-09 6.99994e-10 -7.09496e-10 -2.22167 -0.733487 0.20892 -2.03217e-16 0.0 -3.88251e-19 10.5076 1.73099 21.5322 -0.0512923 25.4185 0.635338 -14.549 -23.9078 -28.7476 2.03217e-16 0.0 3.88251e-19 2.11083 6.32323 -19.3389 0.0229682 24.6007 -1.24712 27.368 -34.3525 38.8276
